<?xml version="1.0" encoding="UTF-8"?>
<svg xmlns="http://www.w3.org/2000/svg" xmlns:xlink="http://www.w3.org/1999/xlink" width="253pt" height="213.445pt" viewBox="0 0 253 213.445" version="1.2">
<g id="surface1">
<path style="fill:none;stroke-width:0.99628;stroke-linecap:butt;stroke-linejoin:miter;stroke:rgb(0%,0%,0%);stroke-opacity:1;stroke-miterlimit:10;" d="M -0.000450084 -0.000841486 L 42.52079 42.520399 L 85.038903 42.520399 L 141.732848 113.387048 " transform="matrix(1.2491,0,0,-1.2491,40.05525,177.538011)"/>
<path style=" stroke:none;fill-rule:nonzero;fill:rgb(84.999084%,84.999084%,84.999084%);fill-opacity:1;" d="M 40.054688 177.539062 L 93.167969 124.425781 L 146.277344 124.425781 L 217.09375 35.90625 L 40.054688 35.90625 "/>
<path style="fill:none;stroke-width:0.3985;stroke-linecap:butt;stroke-linejoin:miter;stroke:rgb(0%,0%,0%);stroke-opacity:1;stroke-miterlimit:10;" d="M 28.348086 2.835576 L 28.348086 -2.834131 " transform="matrix(1.2491,0,0,-1.2491,40.05525,177.538011)"/>
<path style="fill:none;stroke-width:0.3985;stroke-linecap:butt;stroke-linejoin:miter;stroke:rgb(0%,0%,0%);stroke-opacity:1;stroke-miterlimit:10;" d="M 56.693495 2.835576 L 56.693495 -2.834131 " transform="matrix(1.2491,0,0,-1.2491,40.05525,177.538011)"/>
<path style="fill:none;stroke-width:0.3985;stroke-linecap:butt;stroke-linejoin:miter;stroke:rgb(0%,0%,0%);stroke-opacity:1;stroke-miterlimit:10;" d="M 85.038903 2.835576 L 85.038903 -2.834131 " transform="matrix(1.2491,0,0,-1.2491,40.05525,177.538011)"/>
<path style="fill:none;stroke-width:0.3985;stroke-linecap:butt;stroke-linejoin:miter;stroke:rgb(0%,0%,0%);stroke-opacity:1;stroke-miterlimit:10;" d="M 113.387439 2.835576 L 113.387439 -2.834131 " transform="matrix(1.2491,0,0,-1.2491,40.05525,177.538011)"/>
<path style="fill:none;stroke-width:0.3985;stroke-linecap:butt;stroke-linejoin:miter;stroke:rgb(0%,0%,0%);stroke-opacity:1;stroke-miterlimit:10;" d="M 2.835967 28.347694 L -2.83374 28.347694 " transform="matrix(1.2491,0,0,-1.2491,40.05525,177.538011)"/>
<path style="fill:none;stroke-width:0.3985;stroke-linecap:butt;stroke-linejoin:miter;stroke:rgb(0%,0%,0%);stroke-opacity:1;stroke-miterlimit:10;" d="M 2.835967 56.693103 L -2.83374 56.693103 " transform="matrix(1.2491,0,0,-1.2491,40.05525,177.538011)"/>
<path style="fill:none;stroke-width:0.3985;stroke-linecap:butt;stroke-linejoin:miter;stroke:rgb(0%,0%,0%);stroke-opacity:1;stroke-miterlimit:10;" d="M 2.835967 85.041639 L -2.83374 85.041639 " transform="matrix(1.2491,0,0,-1.2491,40.05525,177.538011)"/>
<path style=" stroke:none;fill-rule:nonzero;fill:rgb(0%,0%,0%);fill-opacity:1;" d="M 61.300781 159.835938 C 61.300781 157.878906 59.714844 156.292969 57.757812 156.292969 C 55.804688 156.292969 54.21875 157.878906 54.21875 159.835938 C 54.21875 161.789062 55.804688 163.375 57.757812 163.375 C 59.714844 163.375 61.300781 161.789062 61.300781 159.835938 Z M 61.300781 159.835938 "/>
<path style=" stroke:none;fill-rule:nonzero;fill:rgb(0%,0%,0%);fill-opacity:1;" d="M 185.226562 83.117188 C 185.226562 81.160156 183.644531 79.574219 181.6875 79.574219 C 179.730469 79.574219 178.144531 81.160156 178.144531 83.117188 C 178.144531 85.070312 179.730469 86.65625 181.6875 86.65625 C 183.644531 86.65625 185.226562 85.070312 185.226562 83.117188 Z M 185.226562 83.117188 "/>
<path style="fill:none;stroke-width:0.3985;stroke-linecap:butt;stroke-linejoin:miter;stroke:rgb(0%,0%,0%);stroke-opacity:1;stroke-dasharray:2.98883,2.98883;stroke-miterlimit:10;" d="M 14.172254 14.171863 L 113.387439 75.591085 " transform="matrix(1.2491,0,0,-1.2491,40.05525,177.538011)"/>
<path style="fill:none;stroke-width:0.3985;stroke-linecap:butt;stroke-linejoin:miter;stroke:rgb(0%,0%,0%);stroke-opacity:1;stroke-miterlimit:10;" d="M -0.000450084 112.389455 L -0.000450084 -2.834131 " transform="matrix(1.2491,0,0,-1.2491,40.05525,177.538011)"/>
<path style="fill-rule:nonzero;fill:rgb(0%,0%,0%);fill-opacity:1;stroke-width:0.3985;stroke-linecap:butt;stroke-linejoin:round;stroke:rgb(0%,0%,0%);stroke-opacity:1;stroke-miterlimit:10;" d="M 0.795924 0.000450084 C -0.198542 0.200594 -1.196136 0.597755 -2.390746 1.295132 C -1.196136 0.397611 -1.196136 -0.399838 -2.390746 -1.294232 C -1.196136 -0.596855 -0.198542 -0.199694 0.795924 0.000450084 Z M 0.795924 0.000450084 " transform="matrix(0,-1.2491,-1.2491,0,40.05525,37.150438)"/>
<path style="fill:none;stroke-width:0.3985;stroke-linecap:butt;stroke-linejoin:miter;stroke:rgb(0%,0%,0%);stroke-opacity:1;stroke-miterlimit:10;" d="M -0.000450084 -0.000841486 L 140.738382 -0.000841486 " transform="matrix(1.2491,0,0,-1.2491,40.05525,177.538011)"/>
<path style="fill-rule:nonzero;fill:rgb(0%,0%,0%);fill-opacity:1;stroke-width:0.3985;stroke-linecap:butt;stroke-linejoin:round;stroke:rgb(0%,0%,0%);stroke-opacity:1;stroke-miterlimit:10;" d="M 0.798051 -0.000841486 C -0.199542 0.199303 -1.194008 0.596464 -2.391746 1.293841 C -1.194008 0.399447 -1.194008 -0.398002 -2.391746 -1.295524 C -1.194008 -0.598147 -0.199542 -0.197858 0.798051 -0.000841486 Z M 0.798051 -0.000841486 " transform="matrix(1.2491,0,0,-1.2491,215.850811,177.538011)"/>
</g>
</svg>
